<svg width="39" height="39" viewBox="0 0 39 39" fill="none" xmlns="http://www.w3.org/2000/svg">
<path d="M35.75 36.9688H3.25C2.58375 36.9688 2.03125 36.4162 2.03125 35.75C2.03125 35.0838 2.58375 34.5312 3.25 34.5312H35.75C36.4162 34.5312 36.9688 35.0838 36.9688 35.75C36.9688 36.4162 36.4162 36.9688 35.75 36.9688Z" fill="#292D32"/>
<path d="M34.125 36.9688H4.875C4.20875 36.9688 3.65625 36.4162 3.65625 35.75V24.375C3.65625 15.6325 10.7575 8.53125 19.5 8.53125C28.2425 8.53125 35.3438 15.6325 35.3438 24.375V35.75C35.3438 36.4162 34.7912 36.9688 34.125 36.9688ZM6.09375 34.5312H32.9062V24.375C32.9062 16.9812 26.8938 10.9688 19.5 10.9688C12.1062 10.9688 6.09375 16.9812 6.09375 24.375V34.5312Z" fill="#292D32"/>
<path d="M19.5 6.09375C18.8338 6.09375 18.2812 5.54125 18.2812 4.875V3.25C18.2812 2.58375 18.8338 2.03125 19.5 2.03125C20.1662 2.03125 20.7188 2.58375 20.7188 3.25V4.875C20.7188 5.54125 20.1662 6.09375 19.5 6.09375Z" fill="#292D32"/>
<path d="M8.12484 9.34375C7.81609 9.34375 7.50734 9.23 7.26359 8.98625L5.63859 7.36125C5.16734 6.89 5.16734 6.11 5.63859 5.63875C6.10984 5.1675 6.88984 5.1675 7.36109 5.63875L8.98609 7.26375C9.45734 7.735 9.45734 8.515 8.98609 8.98625C8.74234 9.23 8.43359 9.34375 8.12484 9.34375Z" fill="#292D32"/>
<path d="M30.8748 9.34375C30.5661 9.34375 30.2573 9.23 30.0136 8.98625C29.5423 8.515 29.5423 7.735 30.0136 7.26375L31.6386 5.63875C32.1098 5.1675 32.8898 5.1675 33.3611 5.63875C33.8323 6.11 33.8323 6.89 33.3611 7.36125L31.7361 8.98625C31.4923 9.23 31.1836 9.34375 30.8748 9.34375Z" fill="#292D32"/>
</svg>
