<svg width="72" height="79" viewBox="0 0 72 79" fill="none" xmlns="http://www.w3.org/2000/svg">
<path d="M38.3674 0.634578C45.9288 3.81284 51.6971 5.94749 58.5754 8.09163C60.7101 8.76523 62.9301 9.38191 66.4499 10.2832C68.3474 10.7671 69.41 11.0896 69.8843 11.3173C70.9184 11.8296 71.6395 12.7309 71.9051 13.8504C71.962 14.1066 72 18.8218 72 26.6583V39.0583L71.7628 41.0791C71.1367 46.2782 70.2543 49.9782 68.6794 53.906C67.0761 57.9286 64.3437 62.1884 61.118 65.6798C60.5393 66.3059 59.9606 66.9036 59.8372 66.9985C59.7234 67.1029 59.3059 67.4729 58.917 67.8334C58.0916 68.6019 56.7444 69.655 55.2074 70.727C51.8489 73.0799 47.238 75.2999 42.2572 76.9697C40.2459 77.6433 37.2479 78.5066 36.5268 78.6205C35.7489 78.7438 35.1891 78.6489 32.9406 77.9659C28.6334 76.6756 25.3602 75.4233 22.4381 73.9622C16.1006 70.7934 11.9357 67.4159 8.18816 62.4066C6.85045 60.623 5.88274 59.0671 4.50708 56.477C2.93218 53.517 1.39523 48.631 0.702655 44.3427C-0.0373572 39.7414 -0.0183828 40.3486 0.0100792 26.2599C0.0385412 11.8012 -0.0563321 13.1958 0.996762 12.1427C1.75575 11.3837 2.19217 11.1845 4.4122 10.6153C11.0154 8.89805 14.4972 7.85444 19.8671 5.95697C23.33 4.73311 28.7852 2.61743 32.9122 0.900222C34.9994 0.0273868 35.2081 -0.0295359 36.1379 0.00841348C36.8779 0.0368755 37.0581 0.0843128 38.3674 0.634578Z" fill="#AFB5C1" fill-opacity="0.2"/>
<path d="M34.193 5.87152C29.8952 7.73104 22.9789 10.3211 17.4953 12.1237C14.8388 12.987 10.5221 14.2394 7.82766 14.9319C5.93968 15.4063 5.57917 15.5771 5.26608 16.1084C5.06685 16.4404 5.06685 16.5543 5.03839 26.3072C5.00993 36.193 5.04788 37.7395 5.35147 40.4908C6.452 50.2343 10.6264 58.9911 16.7552 64.4558C20.1897 67.5107 25.1705 70.281 30.398 72.0552C32.9312 72.9185 34.5819 73.336 35.673 73.3834C36.6217 73.4308 36.7735 73.4119 38.2346 73.0514C42.3236 72.0267 46.8206 70.1767 50.3214 68.08C51.5927 67.321 53.5661 65.9264 54.5907 65.0535C56.9246 63.0802 59.4672 60.0157 61.0421 57.2834C61.2129 56.9988 61.5544 56.4011 61.8106 55.9552C62.2186 55.2436 62.5506 54.5605 63.5278 52.4733C64.0781 51.2874 65.3209 47.5114 65.7478 45.7089C66.1179 44.1814 66.4499 42.0562 66.6871 39.7603C66.8674 38.0526 66.8768 37.2461 66.8768 27.2085C66.8768 19.4764 66.8484 16.4214 66.7725 16.2696C66.412 15.5676 65.8143 15.245 64.1729 14.875C63.6511 14.7612 62.285 14.4101 61.137 14.097C53.8792 12.1332 45.2362 9.11619 38.7089 6.24153C35.9956 5.04612 36.0715 5.05561 34.193 5.87152ZM38.0638 9.66646C41.8682 10.6152 46.9439 12.5221 49.9894 14.135C54.2682 16.4025 57.0195 18.613 58.2339 20.7666C58.5659 21.3549 58.9075 22.5787 58.9075 23.1669C58.898 25.2542 57.3326 27.4268 55.3782 28.0434C55.0461 28.1478 54.6666 28.2616 54.5243 28.2901L54.2587 28.347V25.9183L54.79 25.6906C56.3838 25.0359 56.8582 23.3567 55.9095 21.7438C54.79 19.8274 51.033 17.2374 46.4316 15.2071C44.2211 14.2299 42.0105 13.4519 37.9025 12.2186C36.062 11.6588 35.6445 11.6873 33.0071 12.5316C26.9541 14.467 23.0833 16.1937 19.6773 18.4802C18.5389 19.2487 17.1347 20.3966 16.6414 20.9754C16.4517 21.1936 16.1481 21.6679 15.9678 22.0285C15.3701 23.2239 15.5788 24.4477 16.5086 25.2542C16.7268 25.4344 17.0968 25.6621 17.3245 25.7475L17.7324 25.9088V27.1232C17.7324 28.347 17.7324 28.347 17.5142 28.347C17.2012 28.347 16.2619 28.015 15.7781 27.7303C14.7534 27.1232 13.7193 25.8613 13.3208 24.6944C12.5524 22.4649 13.6719 19.9602 16.4517 17.7307C18.9373 15.7478 21.7646 14.116 25.4172 12.5696C28.2918 11.3457 33.3012 9.69492 35.0848 9.37235C35.7584 9.24901 36.8304 9.35338 38.0638 9.66646ZM49.7332 24.277C50.625 24.5995 51.422 24.9031 51.4884 24.9506C51.6117 25.0549 51.6592 27.3034 51.5358 27.3034C51.5074 27.3034 50.7009 27.0567 49.7617 26.7532L48.0445 26.2124L24.3167 26.1649L23.0454 26.5539C21.6128 26.9808 20.5122 27.3034 20.4363 27.3034C20.4079 27.3034 20.3889 26.7911 20.3889 26.1649V25.0359L20.6925 24.8747C20.8538 24.7893 21.6792 24.4952 22.5141 24.2105L24.0415 23.7077L48.0919 23.6982L49.7332 24.277ZM40.8246 28.8119C40.6823 28.9542 38.2346 29.7511 37.3238 29.9504C35.4927 30.3488 34.3448 30.4722 32.3904 30.4722C30.7206 30.4722 30.3221 30.4437 29.0983 30.216C27.5803 29.9314 26.2995 29.5519 25.4931 29.144C25.0567 28.9258 25.0187 28.8783 25.18 28.8119C25.4551 28.7075 40.9385 28.7075 40.8246 28.8119ZM47.8927 29.0965C48.8319 29.3811 49.0881 29.5045 49.1545 29.6658C49.3917 30.3204 49.9894 34.3525 49.866 34.4853C49.7237 34.6276 47.8642 34.7225 46.147 34.6751C43.5665 34.5992 41.9726 34.343 39.9328 33.6599C39.1833 33.4133 37.7982 32.7681 37.7223 32.6448C37.6843 32.5879 38.1112 32.4361 38.7754 32.2843C39.3825 32.142 40.3123 31.8763 40.8341 31.6961C42.1149 31.2596 44.4298 30.1022 45.5303 29.3527C46.0237 29.0111 46.498 28.736 46.5739 28.736C46.6593 28.7265 47.2475 28.8878 47.8927 29.0965ZM18.425 30.5671C18.5673 30.5955 18.9658 30.5671 19.3168 30.4817C19.6584 30.4058 19.962 30.3489 19.9809 30.3678C19.9999 30.3868 19.924 30.9086 19.8102 31.5348C19.7058 32.1609 19.592 33.3848 19.554 34.2671L19.4876 35.8705L19.222 36.0697C18.8235 36.3638 17.7324 36.3543 17.4288 36.0507C17.2201 35.842 17.2106 35.7851 17.2391 34.4379C17.2676 32.9958 17.4573 31.2596 17.6471 30.6145C17.7514 30.2635 17.7799 30.254 17.9601 30.3678C18.074 30.4437 18.2732 30.5291 18.425 30.5671ZM54.3915 30.8801C54.6572 32.0661 54.733 32.7491 54.7995 34.3335L54.8564 35.9179L54.5812 36.0887C54.1923 36.3543 53.2246 36.3354 52.864 36.0697C52.5984 35.8705 52.5984 35.861 52.532 34.5328C52.5035 33.7928 52.3802 32.5689 52.2663 31.8099C52.1525 31.0509 52.0766 30.4058 52.0956 30.3773C52.124 30.3583 52.3612 30.4058 52.6269 30.4817C53.1581 30.643 53.6515 30.605 53.9456 30.3773C54.0405 30.3109 54.1448 30.2445 54.1828 30.2445C54.2112 30.2445 54.3061 30.5291 54.3915 30.8801ZM23.3774 31.3355L24.0984 31.6581L23.8897 32.0661C23.5956 32.6448 22.941 33.5461 22.4856 33.992L22.0966 34.362V34.0394C22.0966 33.5081 22.533 31.0035 22.6184 31.0035C22.6374 31.0035 22.9789 31.1553 23.3774 31.3355ZM28.0926 32.7491C29.3734 33.0053 31.4606 33.2045 32.7224 33.1761L33.5289 33.1666L34.4302 33.8402C35.4453 34.5992 37.0676 35.4625 38.4148 35.9654C39.4774 36.3543 41.669 36.9141 43.0162 37.1323C44.1452 37.3126 48.3576 37.4169 49.4012 37.2841C50.0084 37.2177 50.1127 37.2272 50.1602 37.3505C50.1981 37.4359 50.2266 38.6123 50.2266 39.969C50.2266 42.7298 50.1696 43.1473 49.515 45.1491C49.0406 46.6007 48.6137 47.5114 47.8737 48.6309C45.7106 51.9231 42.409 54.238 38.7848 55.0159C37.3617 55.329 34.6199 55.329 33.2442 55.0254C30.4739 54.4182 28.2729 53.1944 26.1857 51.1166C25.6259 50.5664 24.9903 49.8548 24.7531 49.5322C23.1307 47.2743 22.1346 44.7886 21.8025 42.1606C21.6887 41.2308 21.7266 38.0621 21.8594 37.7395C21.8879 37.6636 22.2389 37.4074 22.6374 37.1702C24.0036 36.3543 25.1705 35.083 26.1762 33.2994C26.4893 32.7302 26.7169 32.4266 26.7928 32.4645C26.8593 32.4835 27.4475 32.6163 28.0926 32.7491ZM18.9278 38.7357C19.1366 38.8685 19.1555 38.9444 19.1555 39.7318C19.1555 40.5288 19.1461 40.5857 18.9658 40.5857C18.8519 40.5857 18.5958 40.6711 18.3871 40.7849C17.1537 41.4111 17.6565 43.4319 19.0417 43.4319C19.3168 43.4319 19.3358 43.4603 19.4402 43.9727C19.573 44.6178 19.8007 45.5381 19.8861 45.7658C19.943 45.9081 19.8671 45.9271 19.1271 45.8796C16.2714 45.6994 14.4309 42.8626 15.5409 40.358C15.8824 39.58 16.6983 38.859 17.5427 38.5839C17.8748 38.47 18.6622 38.5554 18.9278 38.7357ZM54.8943 38.821C55.4825 39.1152 56.0992 39.7888 56.4218 40.4718C56.64 40.9462 56.678 41.136 56.678 41.9139C56.6685 43.0998 56.4408 43.6975 55.6818 44.5134C54.8374 45.4053 53.7559 45.8986 52.6174 45.8986C52.1525 45.8986 52.1525 45.8986 52.2094 45.633C52.2474 45.4906 52.3707 44.9499 52.494 44.4281L52.7122 43.4793L53.1297 43.4129C53.642 43.318 53.9741 43.0903 54.1828 42.6634C54.6287 41.7906 54.1448 40.7659 53.1961 40.6236L52.8356 40.5572V38.8021L53.1961 38.6503C53.6515 38.451 54.2966 38.5174 54.8943 38.821ZM28.0641 55.8034C28.4626 56.0216 28.9939 56.3252 29.2501 56.477C29.677 56.7142 29.7434 56.809 30.2273 57.8147C30.5024 58.4124 30.768 58.8962 30.806 58.8962C30.8439 58.8962 31.195 58.5927 31.6029 58.2321C32.0014 57.8621 32.4093 57.568 32.5042 57.568C32.8458 57.5585 35.1986 57.976 35.1702 58.0424C35.0848 58.2321 31.2329 61.8183 30.9483 61.9701C30.7206 62.084 30.5024 62.1219 30.2747 62.0935C29.6485 61.9891 29.3924 61.676 28.5006 59.8924C27.5329 57.976 27.789 58.1088 26.271 58.678C23.8897 59.5698 22.2579 60.6799 20.6451 62.5204C19.7912 63.5071 19.7438 63.5356 19.3548 63.545C18.9184 63.545 18.425 63.1561 18.1878 62.6248L18.0076 62.2073L18.2163 61.7614C18.5673 61.0404 20.7115 58.9532 21.8784 58.1942C23.0169 57.4542 24.6677 56.6383 25.7967 56.2777C26.4228 56.0785 26.66 55.9457 26.8687 55.699C27.0205 55.5282 27.1818 55.3859 27.2388 55.3859C27.2957 55.3859 27.6657 55.5757 28.0641 55.8034ZM45.0275 55.718C45.2362 55.9647 45.4544 56.088 45.9573 56.2493C47.7219 56.7901 49.4391 57.6439 50.7768 58.6496C51.6971 59.3422 53.4238 61.1542 53.6989 61.714C53.8792 62.084 53.8887 62.1884 53.7938 62.5014C53.6325 63.0327 53.0348 63.545 52.5604 63.545C52.2094 63.545 52.143 63.4976 51.4125 62.6437C50.0653 61.0783 49.0596 60.2814 47.3804 59.4275C46.4886 58.9816 45.0275 58.3934 44.5247 58.2891L44.2401 58.2226L43.4621 59.8355C42.9688 60.8696 42.5798 61.5432 42.3805 61.733C42.0485 62.0366 41.5551 62.1694 41.1567 62.0555C40.9195 61.9796 36.802 58.2037 36.802 58.0519C36.802 58.0139 37.3428 57.8906 38.0164 57.7767C38.6805 57.6629 39.2877 57.5585 39.3731 57.549C39.4584 57.5301 39.8759 57.8147 40.3123 58.1847C40.7392 58.5452 41.1377 58.8488 41.1946 58.8488C41.2515 58.8488 41.4982 58.3934 41.7354 57.8432C42.1528 56.8565 42.3521 56.5244 42.4944 56.5244C42.5323 56.5244 42.9213 56.3252 43.3577 56.0785C44.4583 55.4713 44.6196 55.3859 44.6954 55.3859C44.7239 55.3859 44.8757 55.5377 45.0275 55.718ZM34.8096 61.9986C34.8096 62.2263 34.4017 66.2679 34.193 68.08C34.0601 69.2469 33.9558 70.2336 33.9558 70.281C33.9558 70.4328 33.6807 70.3949 32.7224 70.1008C31.8686 69.8446 31.8211 69.8162 31.7927 69.56C31.7832 69.4082 31.897 68.2413 32.0583 66.97C32.2101 65.6987 32.3429 64.5317 32.3429 64.3799C32.3429 64.1522 32.4852 63.9625 33.083 63.4027C34.6104 61.9607 34.8096 61.7994 34.8096 61.9986ZM38.4148 62.9284C39.003 63.4502 39.5154 63.972 39.5628 64.0858C39.6008 64.1997 39.7051 64.8828 39.781 65.6038C40.2554 69.8636 40.2459 69.7308 40.1036 69.8162C39.9233 69.9395 38.9082 70.2431 38.4433 70.3285C38.0733 70.3854 38.0353 70.3759 37.9974 70.1672C37.9689 70.0439 37.7982 68.3931 37.6084 66.4861C37.4282 64.5792 37.2479 62.7766 37.2194 62.4635C37.1815 62.103 37.191 61.9227 37.2574 61.9417C37.3048 61.9607 37.8266 62.4066 38.4148 62.9284Z" fill="#0075F6"/>
<path d="M28.8611 39.3049C28.0736 39.7034 27.5993 40.5098 27.5993 41.4301C27.6088 42.0278 27.8649 42.5591 28.3867 43.0144C29.2785 43.8019 30.4834 43.8304 31.3088 43.0809C32.3619 42.1321 32.3904 40.7185 31.4037 39.7318C30.6921 39.0203 29.7529 38.859 28.8611 39.3049Z" fill="#0075F6"/>
<path d="M41.0998 39.3049C39.3161 40.1967 39.4774 42.8247 41.3464 43.4888C42.4754 43.8968 43.6234 43.3845 44.1642 42.246C44.5721 41.3826 44.3824 40.4718 43.6329 39.7223C42.9308 39.0203 41.9916 38.8685 41.0998 39.3049Z" fill="#0075F6"/>
<path d="M35.322 43.2327C34.7432 43.4983 34.4776 43.9252 34.4776 44.5893C34.4776 45.1965 34.6579 45.5096 35.1986 45.8796C35.4643 46.0694 35.6161 46.0978 36.0715 46.0694C36.7261 46.0219 37.0487 45.8132 37.3523 45.225C37.7412 44.485 37.4376 43.6216 36.6502 43.2421C36.1758 43.005 35.8248 43.005 35.322 43.2327Z" fill="#0075F6"/>
<path d="M32.4852 47.7297C31.5934 48.6215 32.2955 49.9687 34.0791 50.7846C35.303 51.3443 36.8304 51.3159 38.0828 50.6992C39.0979 50.1964 39.9328 49.2761 39.9328 48.6594C39.9328 48.3653 39.5913 47.7391 39.3446 47.5684C39.2307 47.483 38.9461 47.4166 38.7184 47.4166C38.3389 47.4166 38.2535 47.464 37.7792 47.9289C37.191 48.5266 36.802 48.6879 35.9956 48.6879C35.1702 48.6879 34.7432 48.5076 34.1835 47.9194C33.7281 47.4545 33.6617 47.4166 33.2442 47.4166C32.8647 47.4166 32.7509 47.464 32.4852 47.7297Z" fill="#0075F6"/>
</svg>
