<svg width="39" height="39" viewBox="0 0 39 39" fill="none" xmlns="http://www.w3.org/2000/svg">
<path d="M19.5325 33.3612C15.7463 33.3612 11.96 32.76 8.36878 31.5575C7.00378 31.0862 5.96378 30.1275 5.50878 28.8762C5.03753 27.625 5.20003 26.2437 5.94753 25.0087L7.81628 21.905C8.20628 21.255 8.56378 19.955 8.56378 19.1912V14.495C8.56378 8.45 13.4875 3.52625 19.5325 3.52625C25.5775 3.52625 30.5013 8.45 30.5013 14.495V19.1912C30.5013 19.9387 30.8588 21.255 31.2488 21.9212L33.1013 25.0087C33.8 26.1787 33.93 27.5925 33.4588 28.8762C32.9875 30.16 31.9638 31.135 30.68 31.5575C27.105 32.76 23.3188 33.3612 19.5325 33.3612ZM19.5325 5.96375C14.8363 5.96375 11.0013 9.7825 11.0013 14.495V19.1912C11.0013 20.3775 10.5138 22.1325 9.91253 23.1562L8.04378 26.26C7.68628 26.8612 7.58878 27.495 7.80003 28.0312C7.99503 28.5837 8.48253 29.0062 9.14878 29.2337C15.9413 31.5087 23.14 31.5087 29.9325 29.2337C30.5175 29.0387 30.9725 28.6 31.1838 28.015C31.395 27.43 31.3463 26.7962 31.0213 26.26L29.1525 23.1562C28.535 22.1 28.0638 20.3612 28.0638 19.175V14.495C28.0638 9.7825 24.245 5.96375 19.5325 5.96375Z" fill="#292D32"/>
<path d="M22.555 6.4025C22.4413 6.4025 22.3275 6.38625 22.2138 6.35375C21.7425 6.22375 21.2875 6.12625 20.8488 6.06125C19.4675 5.8825 18.135 5.98 16.8838 6.35375C16.4288 6.5 15.9413 6.35375 15.6325 6.0125C15.3238 5.67125 15.2263 5.18375 15.405 4.745C16.0713 3.03875 17.6963 1.9175 19.5488 1.9175C21.4013 1.9175 23.0263 3.0225 23.6925 4.745C23.855 5.18375 23.7738 5.67125 23.465 6.0125C23.2213 6.2725 22.88 6.4025 22.555 6.4025Z" fill="#292D32"/>
<path d="M19.5325 37.0663C17.9237 37.0663 16.3637 36.4163 15.2262 35.2788C14.0887 34.1413 13.4387 32.5813 13.4387 30.9725H15.8762C15.8762 31.9313 16.2662 32.8738 16.9487 33.5563C17.6312 34.2388 18.5737 34.6288 19.5325 34.6288C21.5475 34.6288 23.1887 32.9875 23.1887 30.9725H25.6262C25.6262 34.3363 22.8962 37.0663 19.5325 37.0663Z" fill="#292D32"/>
</svg>
